<svg width="1431" height="331" viewBox="0 0 1431 331" fill="none" xmlns="http://www.w3.org/2000/svg">
<g clip-path="url(#clip0_34_2543)">
<path d="M1333.19 211.065L1423.64 245.001H1293.86L1277.22 242.998L1269.16 237.435L1296.69 211.065H1333.19Z" fill="#172B4D"/>
<path d="M1321.29 148.758V143.418C1321.29 143.418 1310.7 120.275 1309.19 120.052C1307.68 119.83 1184.66 63.3086 1184.66 63.3086L1231.54 164.001L1250.1 185.809L1321.29 148.758Z" fill="white" stroke="#36B37E" stroke-width="1.35786" stroke-miterlimit="10"/>
<mask id="mask0_34_2543" style="mask-type:alpha" maskUnits="userSpaceOnUse" x="1183" y="62" width="140" height="126">
<path d="M1321.67 149.363V144.022C1321.67 144.022 1311.08 120.879 1309.57 120.657C1308.05 120.434 1185.03 63.9131 1185.03 63.9131L1231.92 164.606L1250.48 186.413L1321.67 149.363Z" fill="white" stroke="#36B37E" stroke-width="1.35786" stroke-miterlimit="10"/>
</mask>
<g mask="url(#mask0_34_2543)">
<path d="M1269.96 122.611L1254.54 123.168L1247.48 109.371L1232.65 110.15L1239.61 123.613L1224.89 124.169L1231.75 137.854L1246.57 137.52L1261.9 137.075L1269.36 151.317L1285.19 151.206L1293.06 165.892H1309.69L1301.53 150.983L1293.56 136.297L1277.53 136.742L1269.96 122.611Z" fill="#C5E9DA"/>
<path d="M1262.6 108.703L1255.34 95.1289L1240.42 96.019L1247.48 109.371L1262.6 108.703Z" fill="#36B37E"/>
<path d="M1285.8 121.944L1278.13 107.925L1262.6 108.704L1269.96 122.611L1285.8 121.944Z" fill="#36B37E"/>
<path d="M1294.06 107.145L1286.3 93.2373L1270.67 94.1274L1278.13 107.924L1294.06 107.145Z" fill="#36B37E"/>
<path d="M1302.03 121.387L1285.8 121.943L1293.56 136.296L1310.1 135.962L1327.04 135.517L1318.67 120.83L1310.5 106.366L1294.06 107.145L1302.03 121.387Z" fill="#36B37E"/>
<path d="M1218.23 110.817L1232.65 110.15L1225.9 96.7984L1240.42 96.0195L1233.56 82.7793L1219.24 83.7807L1205.23 84.782L1211.68 97.6885L1197.77 98.4673L1184.25 99.2461L1190.4 112.153L1204.12 111.485L1210.57 124.725L1224.89 124.169L1218.23 110.817Z" fill="#172B4D"/>
<path d="M1196.66 125.17L1203.01 138.521L1217.23 138.187L1210.57 124.725L1196.66 125.17Z" fill="#36B37E"/>
<path d="M1185.46 73.2103L1191.51 85.7829L1205.23 84.7816L1198.87 72.0977L1185.46 73.2103Z" fill="#36B37E"/>
<path d="M1255.34 95.1292L1270.67 94.1278L1263.31 80.665L1256.15 67.4248L1241.33 68.6487L1226.81 69.8726L1233.56 82.779L1248.28 81.7777L1255.34 95.1292Z" fill="#36B37E"/>
<path d="M1294.57 78.4395L1278.74 79.5521L1286.3 93.2374L1302.43 92.3473L1294.57 78.4395Z" fill="#36B37E"/>
<path d="M1327.24 105.588L1318.97 91.3467L1302.43 92.348L1310.5 106.367L1327.24 105.588Z" fill="#36B37E"/>
<path d="M1217.23 138.187L1223.98 151.984L1238.7 151.761L1231.75 137.854L1217.23 138.187Z" fill="#36B37E"/>
</g>
<path d="M1293.86 145.197L1237.39 158.549L1235.98 162.665L1248.59 181.691L1293.86 145.197Z" fill="#172B4D"/>
<path d="M1326.13 149.426L1381.59 0.222656L1345.89 160.774L1342.06 162.221L1326.13 149.426Z" fill="white" stroke="#36B37E" stroke-width="1.35786" stroke-miterlimit="10"/>
<path d="M1346.2 159.328L1329.66 139.857L1326.13 149.426L1342.06 162.221L1345.89 160.775L1346.2 159.328Z" fill="#36B37E"/>
<path d="M1342.06 162.221L1330.67 151.54L1313.02 136.742L1268.35 156.547L1266.33 168.452L1277.22 185.475L1342.06 162.221Z" fill="white" stroke="#36B37E" stroke-width="1.35786" stroke-miterlimit="10"/>
<path d="M1319.17 170.343L1352.15 158.549L1333.19 211.065L1305.96 212.956L1319.17 170.343Z" fill="white" stroke="#36B37E" stroke-width="1.35786" stroke-miterlimit="10"/>
<path d="M1283.78 182.915L1277.22 185.474L1274.2 232.984L1277.22 242.997L1305.96 212.956L1319.17 170.343L1283.78 182.915Z" fill="white" stroke="#36B37E" stroke-width="1.35786" stroke-miterlimit="10"/>
<path d="M1372.01 151.54L1428.98 185.475L1283.78 182.916L1372.01 151.54Z" fill="#C5E9DA" stroke="#36B37E" stroke-width="1.35786" stroke-miterlimit="10"/>
<path d="M1277.22 185.475V177.687L1231.55 108.37L1225.49 118.94L1269.16 237.435L1274.2 232.984L1277.22 185.475Z" fill="white" stroke="#36B37E" stroke-width="1.35786" stroke-miterlimit="10"/>
<path d="M1231.55 108.369L1225.49 118.939L1205.13 139.857L1221.26 103.919L1231.55 108.369Z" fill="white" stroke="#36B37E" stroke-width="1.35786" stroke-miterlimit="10"/>
<path d="M1340.45 190.816L1283.78 182.916L1342.97 184.029L1340.45 190.816Z" fill="#172B4D"/>
<path d="M1289.93 180.802L1270.17 162.666L1269.36 165.781L1277.22 177.686V185.475L1289.93 180.802Z" fill="#172B4D"/>
<path d="M1264.92 226.085L1260.28 232.427L1254.23 226.085L1222.67 121.944L1225.5 118.939L1264.92 226.085Z" fill="#C5E9DA" stroke="#36B37E" stroke-width="1.35786" stroke-miterlimit="10"/>
</g>
<path d="M48.1152 314.819L267.557 311.866L182.522 287.513L192.106 266.407L246.494 258.638L232.562 255.275L195.116 253.535L48.1152 314.819Z" fill="#172B4D"/>
<path d="M169.482 207.034L162.795 207.15L107.182 185.58L170.039 222.689L180.293 213.876L169.482 207.034Z" fill="#36B37E"/>
<path d="M169.482 207.033L277.699 186.392L223.647 241.011L169.482 207.033Z" fill="#172B4D"/>
<path d="M107.182 185.58L215.176 249.477L190.88 254.115L131.367 258.638L107.182 185.58Z" fill="white" stroke="#36B37E" stroke-width="1.43685" stroke-miterlimit="10" stroke-linejoin="round"/>
<path d="M215.176 249.477L277.699 186.392L232.562 255.275L215.176 249.477Z" fill="white" stroke="#36B37E" stroke-width="1.43685" stroke-miterlimit="10" stroke-linejoin="round"/>
<path d="M170.04 222.689L198.013 198.685L200.911 201.12L192.106 235.793L170.04 222.689Z" fill="white" stroke="#36B37E" stroke-width="1.43685" stroke-miterlimit="10" stroke-linejoin="round"/>
<path d="M200.91 201.119L226.209 238.46L215.176 249.477L192.106 235.793L200.91 201.119Z" fill="white" stroke="#36B37E" stroke-width="1.43685" stroke-miterlimit="10" stroke-linejoin="round"/>
<path d="M232.562 255.275L190.88 254.115L215.176 249.477L232.562 255.275Z" fill="white" stroke="#36B37E" stroke-width="1.43685" stroke-miterlimit="10" stroke-linejoin="round"/>
<path d="M88.5707 237.416L79.6548 239.039L1.19482 222.572L92.5829 258.058L104.508 244.026L88.5707 237.416Z" fill="white" stroke="#36B37E" stroke-width="1.43685" stroke-miterlimit="10" stroke-linejoin="round"/>
<path d="M88.5708 237.416L228.551 186.392L167.588 270.466L88.5708 237.416Z" fill="#C5E9DA" stroke="#36B37E" stroke-width="1.43685" stroke-miterlimit="10"/>
<path d="M1.19482 222.572L158.226 283.454L126.686 295.05L48.2262 313.953L1.19482 222.572Z" fill="white" stroke="#36B37E" stroke-width="1.43685" stroke-miterlimit="10" stroke-linejoin="round"/>
<path d="M158.226 283.454L228.55 186.392L182.522 287.513L158.226 283.454Z" fill="white" stroke="#36B37E" stroke-width="1.43685" stroke-miterlimit="10" stroke-linejoin="round"/>
<path d="M92.5825 258.058L125.014 220.138L129.361 222.573L124.68 270.467L92.5825 258.058Z" fill="#36B37E"/>
<path d="M129.361 222.572L170.485 266.523L158.226 283.454L124.68 270.466L129.361 222.572Z" fill="white" stroke="#36B37E" stroke-width="1.43685" stroke-miterlimit="10" stroke-linejoin="round"/>
<path d="M182.522 287.513L126.686 295.051L158.226 283.454L182.522 287.513Z" fill="white" stroke="#36B37E" stroke-width="1.43685" stroke-miterlimit="10" stroke-linejoin="round"/>
<mask id="mask1_34_2543" style="mask-type:alpha" maskUnits="userSpaceOnUse" x="0" y="222" width="159" height="92">
<path d="M1 223.005L157.931 283.211L126.854 294.354L48.3938 313.256L1 223.005Z" fill="white" stroke="#36B37E" stroke-width="1.43685" stroke-miterlimit="10" stroke-linejoin="round"/>
</mask>
<g mask="url(#mask1_34_2543)">
<path d="M95.4802 285.889L78.4286 286.469L70.5157 272.205L54.1327 272.901L61.8227 287.049L45.6626 287.512L53.1297 301.776L69.6241 301.428L86.4529 300.964L94.7001 315.924L112.309 315.692L121.002 330.999H139.28L130.364 315.46L121.559 300.269L103.727 300.617L95.4802 285.889Z" fill="#C5E9DA"/>
<path d="M87.2336 271.394L79.2093 257.246L62.7148 258.174L70.5163 272.206L87.2336 271.394Z" fill="#C5E9DA"/>
<path d="M112.867 285.31L104.508 270.582L87.2334 271.394L95.4806 285.889L112.867 285.31Z" fill="#36B37E"/>
<path d="M122.117 269.886L113.535 255.274L96.1494 256.318L104.508 270.582L122.117 269.886Z" fill="#172B4D"/>
<path d="M130.81 284.614L112.867 285.309L121.56 300.269L139.726 299.805L158.449 299.341L149.199 284.034L140.172 269.074L122.117 269.886L130.81 284.614Z" fill="#36B37E"/>
<path d="M38.1955 273.597L54.1327 272.901L46.6656 259.102L62.7142 258.174L55.1357 244.374L39.31 245.418L23.8186 246.461L30.9513 259.913L15.6828 260.841L0.637207 261.653L7.43559 274.989L22.7041 274.293L29.8368 288.093L45.6625 287.513L38.1955 273.597Z" fill="#36B37E"/>
<path d="M14.3457 288.673L21.4784 302.472L37.0813 302.125L29.8371 288.093L14.3457 288.673Z" fill="#36B37E"/>
<path d="M1.97461 234.516L8.77299 247.504L23.8186 246.46L16.9088 233.356L1.97461 234.516Z" fill="#36B37E"/>
<path d="M79.209 257.246L96.1492 256.318L88.0134 242.286L80.1006 228.486L63.7176 229.762L47.6689 230.922L55.136 244.374L71.4076 243.33L79.209 257.246Z" fill="#36B37E"/>
<path d="M122.674 239.967L105.177 241.126L113.535 255.274L131.367 254.346L122.674 239.967Z" fill="#36B37E"/>
<path d="M158.784 268.146L149.533 253.303L131.367 254.346L140.172 269.074L158.784 268.146Z" fill="#36B37E"/>
<path d="M37.0815 302.124L44.5486 316.504L60.8202 316.272L53.1302 301.776L37.0815 302.124Z" fill="#36B37E"/>
</g>
<defs>
<clipPath id="clip0_34_2543">
<rect width="247.453" height="245" fill="white" transform="matrix(-1 0 0 1 1431 0)"/>
</clipPath>
</defs>
</svg>
